<svg height="512pt" viewBox="0 0 512 512" width="512pt" xmlns="http://www.w3.org/2000/svg"><path d="m512 256c0 141.386719-114.613281 256-256 256s-256-114.613281-256-256 114.613281-256 256-256 256 114.613281 256 256zm0 0" fill="#ff6"/><path d="m511.902344 262.949219-147.949219-147.949219-21.121094 135-38.738281-11.074219-123-123.925781-66.09375 282 113.53125 113.53125c9.023438.960938 18.1875 1.46875 27.46875 1.46875 139.058594 0 252.21875-110.878906 255.902344-249.050781zm0 0" fill="#ffd15e"/><path d="m256 271.972656-22.03125 62.511719 22.03125 62.515625h41.859375l16.523437-125.027344zm0 0" fill="#a0c1c6"/><path d="m256 271.972656v125.027344h-41.859375l-16.523437-125.027344zm0 0" fill="#cfe0e3"/><path d="m148.046875 219.648438v-30.292969l16.523437-16.523438 16.523438 16.523438v30.292969zm0 0" fill="#a0c1c6"/><path d="m148.046875 115h33.046875v74.355469h-33.046875zm0 0" fill="#cfe0e3"/><path d="m164.570312 205.878906-16.523437 49.570313h49.570313v-49.570313zm0 0" fill="#41828d"/><path d="m131.523438 205.878906h33.046874v49.570313h-33.046874zm0 0" fill="#70a2aa"/><path d="m214.140625 238.925781v158.074219h-49.570313l-16.523437-79.035156 16.523437-79.039063zm0 0" fill="#0d4a55"/><path d="m115 238.925781h49.570312v158.074219h-49.570312zm0 0" fill="#41828d"/><path d="m131.523438 255.449219h16.523437v16.523437h-16.523437zm0 0" fill="#116371"/><path d="m181.09375 255.449219h16.523438v16.523437h-16.523438zm0 0" fill="#000e0f"/><path d="m131.523438 288.496094h16.523437v16.523437h-16.523437zm0 0" fill="#116371"/><path d="m181.09375 288.496094h16.523438v16.523437h-16.523438zm0 0" fill="#000e0f"/><path d="m330.90625 219.648438v-30.292969l16.523438-16.523438 16.523437 16.523438v30.292969zm0 0" fill="#a0c1c6"/><path d="m330.90625 115h33.046875v74.355469h-33.046875zm0 0" fill="#cfe0e3"/><path d="m347.429688 205.878906-16.523438 49.570313h49.570312v-49.570313zm0 0" fill="#41828d"/><path d="m314.382812 205.878906h33.046876v49.570313h-33.046876zm0 0" fill="#70a2aa"/><path d="m397 238.925781v158.074219h-49.570312l-16.523438-79.035156 16.523438-79.039063zm0 0" fill="#0d4a55"/><path d="m297.859375 238.925781h49.570313v158.074219h-49.570313zm0 0" fill="#41828d"/><path d="m314.382812 255.449219h16.523438v16.523437h-16.523438zm0 0" fill="#116371"/><path d="m363.953125 255.449219h16.523437v16.523437h-16.523437zm0 0" fill="#000e0f"/><path d="m314.382812 288.496094h16.523438v16.523437h-16.523438zm0 0" fill="#116371"/><path d="m363.953125 288.496094h16.523437v16.523437h-16.523437zm0 0" fill="#000e0f"/></svg>